<svg xmlns="http://www.w3.org/2000/svg" viewBox="0 0 1600 1000"><defs><filter id="paper"><feTurbulence type="fractalNoise" baseFrequency=".9" numOctaves="3" seed="8" result="n"/><feColorMatrix in="n" values=".55 0 0 0 .45 .55 0 0 0 .42 .55 0 0 0 .30 0 0 0 .13 0"/><feBlend in="SourceGraphic" mode="multiply"/></filter></defs><rect width="1600" height="1000" fill="#eee7d8"/><rect x="35" y="35" width="1530" height="930" rx="4" fill="#f4eddf" stroke="#b9ad99" stroke-width="3"/><g opacity=".32" stroke="#8c806c" fill="none"><path d="M70 180 C330 120 520 230 760 160 S1180 130 1530 205"/><path d="M80 720 C300 650 520 790 760 710 S1180 650 1510 740"/><path d="M180 60 C230 250 160 420 260 610 S280 820 210 950"/></g><g stroke="#181716" fill="none" stroke-width="8"><path d="M180 190H1390V790H180Z"/><path d="M180 360H1390M180 540H1390M180 660H1390"/><path d="M420 190V790M690 190V790M980 190V790M1190 190V790"/></g><g fill="#d2c6af" stroke="#25221e" stroke-width="6"><path d="M225 235h150v90H225z"/><path d="M470 230h165v105H470z"/><path d="M735 230h210v105H735z"/><path d="M1030 225h125v110h-125z"/><path d="M1240 235h110v90h-110z"/><path d="M225 400h155v105H225z"/><path d="M470 390h180v125H470z"/><path d="M735 390h210v125H735z"/><path d="M1030 390h160v125h-160z"/><path d="M1240 400h110v105h-110z"/><path d="M225 575h150v60H225z"/><path d="M470 555h180v95H470z"/><path d="M735 555h210v95H735z"/><path d="M1030 555h160v95h-160z"/><path d="M1240 570h110v65h-110z"/></g><g fill="#26221e" font-family="Arial,Helvetica,sans-serif" letter-spacing="6"><text x="110" y="115" font-size="28">ASAWARI · MASTERPLAN</text><text x="225" y="285" font-size="16">TOWER A</text><text x="470" y="285" font-size="16">TOWER B</text><text x="735" y="285" font-size="16">TOWER C</text><text x="1030" y="285" font-size="16">CLUBHOUSE</text><text x="1240" y="285" font-size="16">AMENITY</text></g><g stroke="#4d473e" stroke-width="3" fill="none" opacity=".7"><path d="M120 850H1480"/><path d="M120 875H1480"/><path d="M300 835v70M420 835v70M540 835v70M660 835v70M780 835v70M900 835v70M1020 835v70M1140 835v70M1260 835v70"/></g><g fill="#6e7a5b" opacity=".8"><circle cx="330" cy="730" r="25"/><circle cx="410" cy="730" r="18"/><circle cx="1250" cy="730" r="25"/><circle cx="1320" cy="730" r="18"/><circle cx="900" cy="730" r="24"/></g></svg>